HIERARCHY
ROOT RootJoint
{
    OFFSET   0.000000   0.000000   0.000000
    CHANNELS 6 Xposition Yposition Zposition Xrotation Yrotation Zrotation
    JOINT pelvis_lowerback
    {
        OFFSET   0.000000   0.093605   0.000000
        CHANNELS 3 Xrotation Yrotation Zrotation
        JOINT lowerback_torso
        {
            OFFSET   0.000000   0.100000   0.000000
            CHANNELS 3 Xrotation Yrotation Zrotation
            JOINT torso_head
            {
                OFFSET   0.000000   0.282350   0.000000
                CHANNELS 3 Xrotation Yrotation Zrotation
                End Site
                {
                    OFFSET   0.000000   0.192650   0.000000
                }
            }
            JOINT rTorso_Clavicle
            {
                OFFSET  -0.001000   0.157500   0.000000
                CHANNELS 3 Xrotation Yrotation Zrotation
                JOINT rShoulder
                {
                    OFFSET  -0.117647   0.000000   0.000000
                    CHANNELS 3 Xrotation Yrotation Zrotation
                    JOINT rElbow
                    {
                        OFFSET  -0.245000   0.000000   0.000000
                        CHANNELS 3 Xrotation Yrotation Zrotation
                        JOINT rWrist
                        {
                            OFFSET  -0.240000   0.000000   0.000000
                            CHANNELS 3 Xrotation Yrotation Zrotation
                            End Site
                            {
                                OFFSET  -0.116353  -0.002500   0.000000
                            }
                        }
                    }
                }
            }
            JOINT lTorso_Clavicle
            {
                OFFSET   0.001000   0.157500   0.000000
                CHANNELS 3 Xrotation Yrotation Zrotation
                JOINT lShoulder
                {
                    OFFSET   0.117647   0.000000   0.000000
                    CHANNELS 3 Xrotation Yrotation Zrotation
                    JOINT lElbow
                    {
                        OFFSET   0.245000   0.000000   0.000000
                        CHANNELS 3 Xrotation Yrotation Zrotation
                        JOINT lWrist
                        {
                            OFFSET   0.240000   0.000000   0.000000
                            CHANNELS 3 Xrotation Yrotation Zrotation
                            End Site
                            {
                                OFFSET   0.116353  -0.002500   0.000000
                            }
                        }
                    }
                }
            }
        }
    }
    JOINT rHip
    {
        OFFSET  -0.100000  -0.051395   0.000000
        CHANNELS 3 Xrotation Yrotation Zrotation
        JOINT rKnee
        {
            OFFSET   0.000000  -0.410000   0.000000
            CHANNELS 3 Xrotation Yrotation Zrotation
            JOINT rAnkle
            {
                OFFSET   0.000000  -0.390000   0.000000
                CHANNELS 3 Xrotation Yrotation Zrotation
                JOINT rToeJoint
                {
                    OFFSET   0.000000  -0.050000   0.130000
                    CHANNELS 3 Xrotation Yrotation Zrotation
                    End Site
                    {
                        OFFSET  -0.010000   0.002000   0.060000
                    }
                }
            }
        }
    }
    JOINT lHip
    {
        OFFSET   0.100000  -0.051395   0.000000
        CHANNELS 3 Xrotation Yrotation Zrotation
        JOINT lKnee
        {
            OFFSET   0.000000  -0.410000   0.000000
            CHANNELS 3 Xrotation Yrotation Zrotation
            JOINT lAnkle
            {
                OFFSET   0.000000  -0.390000   0.000000
                CHANNELS 3 Xrotation Yrotation Zrotation
                JOINT lToeJoint
                {
                    OFFSET   0.000000  -0.050000   0.130000
                    CHANNELS 3 Xrotation Yrotation Zrotation
                    End Site
                    {
                        OFFSET   0.010000   0.002000   0.060000
                    }
                }
            }
        }
    }
}
MOTION
Frames: 17
Frame Time:   0.008333
 -2.376719   0.925631   3.975860   0.000000   0.000000   0.000000   0.000000   0.000000   0.000000   0.000000   0.000000   0.000000   0.000000   0.000000   0.000000   0.000000   0.000000   0.000000   0.000000   0.000000   0.000000   0.000000   0.000000   0.000000   0.000000   0.000000   0.000000   0.000000   0.000000   0.000000   0.000000   0.000000   0.000000   0.000000   0.000000   0.000000   0.000000   0.000000   0.000000   0.000000   0.000000   0.000000   0.000000   0.000000   0.000000   0.000000   0.000000   0.000000   0.000000   0.000000   0.000000   0.000000   0.000000   0.000000   0.000000   0.000000   0.000000   0.000000   0.000000   0.000000   0.000000   0.000000   0.000000
 -2.376571   0.926148   3.975772   0.863587   0.112736   0.049372  -1.034512   0.003733  -0.048375  -0.007401  -0.120519   0.003617  -0.004854   0.092109  -0.021223   0.215301  -0.507028   0.211927   0.204277   0.044736   2.204554   0.022214   1.048945  -0.002320   0.125955  -0.063622  -3.026443   0.219892   0.441447  -0.273421   0.829525  -0.033890  -2.126227   0.020837  -0.993101   0.007656   0.202970   0.041815   2.867041  -1.209038  -0.137641  -0.243826   0.829277   0.001388  -0.000202  -0.771580  -0.558536   0.012571  -0.170216  -0.000266   0.000867  -1.147681  -0.374824   0.100127   0.629017  -0.000844  -0.001438  -0.785512   0.120284   0.101279   0.337666  -0.000742  -0.000419
 -2.376381   0.927051   3.976002   1.704236   0.244463   0.101004  -2.055142  -0.002985  -0.092417  -0.076138  -0.255672   0.005104  -0.015779   0.181716  -0.042701   0.423932  -1.057435   1.130454   0.401079   0.054524   4.973107   0.050005   2.042751  -0.003075   0.277019   0.117710  -5.356847   0.438016   0.905842  -1.252865   1.642495  -0.069986  -4.820198   0.047099  -1.934602   0.012496   0.446690  -0.135401   5.030090  -2.358363  -0.265398  -0.647796   1.659902   0.003605  -0.000244  -1.493573  -1.089415   0.014138  -0.366919  -0.000803   0.001601  -2.203921  -0.747096   0.328963   1.242597  -0.002258  -0.002414  -1.524514   0.231870   0.197871   0.599076  -0.001471  -0.000627
 -2.376171   0.927939   3.976472   2.501086   0.378454   0.147385  -3.048243  -0.019374  -0.129842  -0.173705  -0.394483   0.008127  -0.029479   0.265668  -0.062451   0.633034  -1.610197   2.483155   0.595519   0.037720   8.108022   0.076222   2.958979  -0.002818   0.423135   0.285050  -6.862855   0.654234   1.364197  -2.663725   2.440306  -0.121474  -7.884316   0.072013  -2.804584   0.015196   0.682271  -0.309490   6.373685  -3.423485  -0.372689  -1.171539   2.447265   0.006077  -0.000233  -2.167334  -1.586931   0.007996  -0.553781  -0.001415   0.002053  -3.152720  -1.102617   0.671046   1.828002  -0.003910  -0.003001  -2.215141   0.336724   0.290223   0.828904  -0.002166  -0.000729
 -2.375953   0.928522   3.977098   3.253576   0.504597   0.187979  -4.007344  -0.042064  -0.161665  -0.289561  -0.532695   0.013197  -0.044601   0.344108  -0.080462   0.848752  -2.153843   4.082951   0.792925   0.003922  11.488896   0.098013   3.802799  -0.002022   0.554565   0.393230  -7.750585   0.873212   1.810262  -4.317614   3.227660  -0.200251 -11.196363   0.092857  -3.608406   0.016531   0.901440  -0.444289   7.105870  -4.414223  -0.459644  -1.787055   3.187974   0.008477  -0.000260  -2.796588  -2.052659  -0.004335  -0.730475  -0.002019   0.002306  -4.005861  -1.442329   1.105645   2.385870  -0.005581  -0.003336  -2.860247   0.435197   0.378476   1.033674  -0.002768  -0.000779
 -2.375748   0.928581   3.977812   3.961800   0.617492   0.224724  -4.927381  -0.068593  -0.191454  -0.415972  -0.667739   0.014702  -0.060408   0.417313  -0.095388   1.073993  -2.681762   5.808319   0.996307  -0.039601  15.035578   0.114488   4.580377  -0.001001   0.669171   0.442122  -8.212853   1.097509   2.240531  -6.107870   3.991887  -0.311846 -14.618151   0.108578  -4.352094   0.016957   1.103420  -0.541365   7.393955  -5.339313  -0.527357  -2.471477   3.882780   0.010600  -0.000355  -3.384474  -2.488382  -0.021637  -0.896763  -0.002561   0.002419  -4.774120  -1.767467   1.613409   2.916727  -0.007138  -0.003505  -3.462692   0.527457   0.462661   1.217346  -0.003250  -0.000803
 -2.375587   0.927934   3.978559   4.626260   0.715180   0.259828  -5.804911  -0.097043  -0.224217  -0.546907  -0.797690   0.005830  -0.076350   0.485544  -0.106846   1.310468  -3.189934   7.602729   1.203615  -0.086433  18.637803   0.125537   5.297514   0.000059   0.767959   0.440155  -8.357273   1.328903   2.653279  -7.989972   4.701699  -0.452088 -17.965679   0.118862  -5.041501   0.016683   1.290108  -0.610996   7.324423  -6.205704  -0.577159  -3.204811   4.533264   0.012334  -0.000507  -3.933885  -2.895827  -0.042869  -1.052910  -0.003010   0.002434  -5.467086  -2.078881   2.178023   3.421043  -0.008501  -0.003563  -4.025258   0.613719   0.542815   1.382577  -0.003606  -0.000813
 -2.375306   0.925849   3.979023   5.047243   0.730250   0.330126  -6.237777  -0.081194  -0.232676  -0.749202  -0.911477  -0.043347  -0.214491   0.454861  -0.127682   1.494410  -3.585308   8.780614   1.515639  -0.106255  22.065264   0.133708   6.117766  -0.000186   0.775431   0.293809  -7.418289   1.569048   3.100139  -9.069938   5.276399  -0.738096 -21.412845   0.124634  -5.774968   0.016678   1.398156  -0.701558   6.261971  -6.853726  -0.817339  -3.923583   5.149977   0.013177  -0.002159  -4.217046  -3.415208   0.055919  -0.996158  -0.002130   0.001570  -5.835729  -2.218027   2.635487   3.565655  -0.007489  -0.002962  -4.377841   0.665222   0.571439   1.519687  -0.003557  -0.000730
 -2.374983   0.922558   3.979229   5.429198   0.727872   0.403272  -6.593570  -0.061547  -0.230095  -0.907649  -1.009020  -0.090331  -0.345720   0.421465  -0.148416   1.659008  -3.911793   9.683444   1.795514  -0.079109  25.134772   0.134402   6.897938  -0.000625   0.796366   0.211202  -6.556649   1.789416   3.490714  -9.888659   5.789157  -1.050594 -24.510060   0.123971  -6.470690   0.016539   1.507784  -0.856821   5.252273  -7.474972  -1.049495  -4.590507   5.726452   0.013331  -0.003451  -4.476788  -3.904340   0.144931  -0.914425  -0.001338   0.000719  -6.203414  -2.345245   3.024514   3.658333  -0.006378  -0.002449  -4.708062   0.712727   0.598005   1.650917  -0.003408  -0.000671
 -2.374647   0.918186   3.979258   5.779977   0.717124   0.473018  -6.892851  -0.037970  -0.220283  -1.032204  -1.093258  -0.130623  -0.464409   0.389858  -0.166740   1.804098  -4.187648  10.393088   2.043862  -0.021017  27.904494   0.130348   7.635625  -0.001090   0.826864   0.183288  -5.913608   1.988691   3.833850 -10.524458   6.245137  -1.375928 -27.306080   0.119230  -7.125859   0.016164   1.616866  -1.041172   4.457106  -8.062839  -1.260973  -5.198734   6.259077   0.012969  -0.004310  -4.718883  -4.361240   0.225770  -0.836433  -0.000756   0.000089  -6.575576  -2.466496   3.359081   3.728228  -0.005359  -0.002022  -5.016838   0.756302   0.622756   1.771686  -0.003181  -0.000624
 -2.374338   0.918255   3.979551   6.081926   0.999989   0.512408  -7.204572  -0.120658  -0.209657  -1.159659  -1.251212  -0.172114  -0.558332   0.356375  -0.184747   1.962057  -4.474386  11.282823   2.282927   0.020238  30.526376   0.125298   8.307048  -0.001399   0.852734   0.100845  -5.500322   2.161680   4.122748 -11.346274   6.643500  -1.721102 -29.951156   0.114165  -7.735526   0.014851   1.724704  -1.196007   3.899026  -8.647736  -1.291727  -5.333378   6.909909   0.010718  -0.002411  -4.846517  -4.558524   0.593426  -0.639749  -0.001122   0.000085  -7.103790  -2.502331   3.285091   4.040937  -0.004286  -0.000907  -4.869442   0.882833   0.467579   1.982958  -0.002278   0.000192
 -2.373990   0.918363   3.980019   6.322474   1.204403   0.597594  -7.477450  -0.135269  -0.227882  -1.264977  -1.362429  -0.220364  -0.653212   0.328161  -0.201583   2.110979  -4.727934  11.963954   2.502551   0.079215  32.964979   0.117995   8.943284  -0.001691   0.879097   0.049083  -4.984945   2.329151   4.398725 -11.958111   7.004027  -2.058146 -32.404238   0.107086  -8.313333   0.013338   1.826647  -1.396095   3.246092  -9.135140  -1.454997  -5.510584   7.469439   0.008800  -0.002061  -4.993047  -4.940085   0.668785  -0.555718  -0.000902  -0.000215  -7.455024  -2.590637   3.146701   4.239834  -0.003386  -0.000530  -5.026208   0.922387   0.471263   2.128121  -0.001798   0.000345
 -2.373656   0.918428   3.980509   6.557794   1.379535   0.684842  -7.737928  -0.127595  -0.241656  -1.367904  -1.443818  -0.265680  -0.745095   0.302328  -0.217984   2.243994  -4.949429  12.513018   2.697976   0.151518  35.185087   0.109327   9.542381  -0.001956   0.908453   0.027054  -4.556710   2.489391   4.661375 -12.443744   7.330358  -2.377708 -34.637646   0.098665  -8.851467   0.011753   1.922913  -1.593076   2.685359  -9.592979  -1.618621  -5.687470   7.973879   0.007231  -0.001882  -5.138867  -5.302345   0.731581  -0.483234  -0.000719  -0.000423  -7.769017  -2.681897   3.007348   4.393947  -0.002674  -0.000322  -5.198803   0.954280   0.480675   2.235156  -0.001422   0.000377
 -2.373389   0.918558   3.981070   6.702576   1.470321   0.735158  -7.797248  -0.100549  -0.263541  -1.548403  -1.461891  -0.237934  -0.857890   0.228856  -0.255089   2.322376  -5.176152  12.676554   2.933532   0.293666  36.943280   0.098025  10.137576  -0.002403   0.880372   0.067632  -3.480858   2.633992   4.945730 -12.516727   7.619169  -2.730085 -36.576894   0.090067  -9.474777   0.010391   2.002990  -1.767557   1.602202  -9.787152  -1.788193  -5.797487   8.118471   0.005814  -0.001648  -5.140406  -5.477239   0.752762  -0.233663  -0.000521  -0.000933  -7.857010  -2.727201   2.926824   4.313744  -0.002153  -0.000283  -5.213470   1.047015   0.514695   2.301694  -0.001144   0.000377
 -2.373158   0.918698   3.981510   6.872923   1.516287   0.777358  -7.836245  -0.062841  -0.286823  -1.718632  -1.463292  -0.208826  -0.969144   0.159184  -0.287013   2.367585  -5.361275  12.574364   3.128911   0.447406  38.402409   0.085621  10.704977  -0.002711   0.859507   0.167912  -2.640606   2.752007   5.198071 -12.346450   7.872263  -3.063465 -38.221676   0.079860 -10.062859   0.009241   2.079530  -1.980047   0.735401  -9.978080  -1.943441  -5.889930   8.175842   0.004660  -0.001387  -5.133204  -5.635900   0.763895   0.000159  -0.000365  -0.001324  -7.946141  -2.769662   2.860248   4.188736  -0.001741  -0.000219  -5.250518   1.134133   0.549269   2.371463  -0.000922   0.000351
 -2.372963   0.918838   3.981835   7.057643   1.531558   0.812446  -7.850349  -0.021202  -0.310478  -1.868821  -1.457199  -0.185197  -1.073721   0.094219  -0.315764   2.385198  -5.512970  12.296316   3.290035   0.606363  39.630480   0.073331  11.243188  -0.002918   0.843286   0.308959  -2.085851   2.845803   5.420248 -12.016346   8.094342  -3.377358 -39.630542   0.069373 -10.613396   0.008327   2.152596  -2.194882   0.138666 -10.173073  -2.088121  -5.968333   8.191001   0.003730  -0.001129  -5.139916  -5.784660   0.773282   0.214526  -0.000259  -0.001602  -8.040121  -2.811473   2.805447   4.042858  -0.001411  -0.000128  -5.301144   1.214841   0.583654   2.434117  -0.000743   0.000306
 -2.372801   0.918973   3.982069   7.250503   1.523706   0.842019  -7.840677   0.020920  -0.336455  -1.996423  -1.447616  -0.168004  -1.170005   0.033613  -0.342435   2.382758  -5.639849  11.903757   3.424072   0.764815  40.677642   0.061837  11.751445  -0.003040   0.829948   0.475005  -1.757149   2.919827   5.617668 -11.583281   8.290287  -3.671856 -40.851560   0.059400 -11.127947   0.007615   2.222566  -2.401567  -0.241789 -10.370906  -2.222837  -6.035045   8.178994   0.002983  -0.000887  -5.155410  -5.924190   0.781691   0.409870  -0.000188  -0.001780  -8.137894  -2.852324   2.760360   3.885915  -0.001146  -0.000021  -5.359147   1.289671   0.617358   2.490670  -0.000600   0.000253
